<?xml version="1.0" encoding="utf-8"?>
<!-- Generator: Adobe Illustrator 25.2.0, SVG Export Plug-In . SVG Version: 6.00 Build 0)  -->
<svg version="1.0" id="Layer_1" xmlns="http://www.w3.org/2000/svg" xmlns:xlink="http://www.w3.org/1999/xlink" x="0px" y="0px"
	 viewBox="0 0 312.1 193.3" style="enable-background:new 0 0 312.1 193.3;" xml:space="preserve">
<style type="text/css">
	.st0{fill:#FF9900;}
</style>
<g>
	<path class="st0" d="M121.1,25.3c1.4,0.3,2.2,0.4,3.6,0.7c-1.5-3.4-2.9-6.4-4.5-9.9c2.2,1.2,4,2.1,6,3.1c0.9-1.9,1.7-3.5,2.6-5.5
		c1.6,1,3.2,1.9,5.7,3.5c-0.6-2.1-1-3.3-1.6-5.5c2.6,2.1,4.6,3.7,7,5.6c1.6-5.6,5.8-1.4,8.7-2.6c0.3-4.7,1.5-5.2,8.3-3.7
		c0.3-1.6,0.6-3.3,0.9-5.3c2.3,0.8,4.6,1.5,8.2,2.7c-2.4-2.1-3.8-3.3-5.2-4.5c0.1-0.3,0.2-0.5,0.3-0.8c3.5,1.3,7,2.6,11.6,4.4
		c-2.4-2.2-3.8-3.5-5.3-4.7c0.1-0.2,0.3-0.5,0.4-0.7c3.2,1.2,6.3,2.5,8.6,3.4c1.5-2,2.7-3.7,3.9-5.3c1.3,1.1,2.6,2.2,3.9,3.3
		c1,0.9,1.7,2.1,2.8,2.9c1.7,1.2,3.7,2.1,6.1,3.4c0,0,0.5-0.3,0.9-0.8c4.8-5.4,4.5-5.1,9.2,0.7c1.6,2,5.5,2.1,8.2,3.1
		c-0.5,0.4-1.1,1-2,1.8c11,1.5,11,1.5,9.7,9.9c3.2,0.8,8.4,0.2,5.6,6.2c1.8,0.8,3.5,1.5,5.8,2.6c-8.2,5.6-15.8,10.7-23.6,16
		c-2-2.6-3.6-5.3-5.7-7.5c-12.8-13.1-35-11.3-45.8,3.7c-11.6,15.9-9.7,39.5,4.2,53c13.8,13.4,36.3,10.4,46.2-6.1
		c0.4-0.7,0.9-1.3,1.6-2.4c8,4.9,15.8,9.8,24.7,15.2c-3.1,1.1-5,1.8-6.8,2.5c1.5,5,0.8,5.9-5.5,6.6c0.5,2,1,4,1.7,7.1
		c-3.6,0.9-7.1,1.7-10.9,2.6c0.2,0.4,0.5,1,1.2,2.2c-6-0.6-9.1,3.6-12,8.6c-2.4-2.5-4.3-4.5-6.4-6.7c-3.6,3.1-7.1,6.2-11.8,10.2
		c-0.7-0.7-2.4-2.4-4.1-4.1c0.3-0.4,0.6-0.8,0.8-1.3c-3.2,1-6.4,2.1-9.6,3.1c-0.1-0.2-0.2-0.4-0.3-0.5c1.5-1.2,3-2.5,4.5-3.7
		c-0.1-0.2-0.2-0.4-0.2-0.5c-3.4,1.3-6.8,2.6-10.2,3.9c-0.2-0.2-0.3-0.4-0.5-0.5c1.2-1.3,2.4-2.5,4.4-4.7c-3.4,1.2-5.7,2-8.3,3
		c-0.1-1.9-0.2-3.7-0.4-5.5c-7.3,1.5-8.2,1.1-8.4-2.6c-3.1-1.3-6.1-2-8.1-3.7c-1-0.9-0.2-3.8-0.2-6.3c-2.1-0.7-5.1-1.8-8.2-2.8
		c0.1-0.3,0.1-0.5,0.2-0.8c1.6-0.1,3.2-0.2,6.1-0.4c-4.3-1.4-7.5-2.5-10.7-3.5c0-0.3,0-0.5,0.1-0.8c1.5-0.2,3-0.5,5.3-0.9
		c-2.8-1.1-4.9-1.9-7.1-2.8c0.8-1.5,1.6-2.9,2.4-4.4c-2.5-2.1-8.7-2.5-4.1-8.1c-1.4-1.3-2.8-2.5-4.3-3.9c5.3-3,0-5.1-0.9-8.3
		c1.3,0.4,2.2,0.7,2.8,0.9c-0.6-8-1.1-16.1-1.7-24.5c0.4,0.1,1.5,0.2,2.6,0.4c0.1-0.2,0.2-0.5,0.2-0.7c-1.3-0.7-2.5-1.3-3.6-1.9
		c0.9-5.3,1.8-10.6,2.7-15.9c0.1-0.4,0.2-1.3,0.3-1.3c3.4-0.4,2.4-1.8,1.1-3.7C123.4,29.9,122.5,27.9,121.1,25.3z"/>
	<path class="st0" d="M112.1,26.9c-7.1-0.4-14.1-0.8-20.9-1.2c0-0.1,0.4,0.9,1.2,2.5c-3.8-2.1-6.9-3.9-10.1-5.7
		c-0.7,0.6-1.6,1.3-3,2.4c2.3,1.8,4.7,3.7,7.1,5.7c-0.3,0.3-0.5,0.7-0.8,1c-1.2-0.5-2.5-1.1-4.4-1.9c0.2,2.4,0.4,4.3,0.6,7.1
		c-3.8-2.8-7.4-5.4-10.9-8.1c-3.5-2.7-7-5.4-11.2-7.5c0.5,0.9,0.9,1.8,1.7,3.4c-1.8-1.2-3.1-2-4.3-2.8c-0.2,0.2-0.5,0.4-0.7,0.6
		c1.7,2.4,3.3,4.9,5.3,7.8c-1.2,0.1-2.1,0.1-2.9,0.2c2.5,4.9,4.9,9.6,6.6,13.1c-1.5,3.4-4.2,6.6-3.7,8.9c0.9,3.7,4,6.9,6.2,10.3
		c0.5-0.3,0.9-0.6,1.4-1c-0.8-1.4-1.5-2.8-2.6-4.8c5.7,1.1,11.1,2.5,16.5,2.9c6.1,0.5,12.3,0.1,18.8,0.1c0,6.7,0,13.1,0,19
		c-14.4,0-28.6,0-42.7,0c5.9,10.1,3.2,22,4.2,34.3c16.3,0,32.3,0,48.6,0c0,6.9,0,13,0,19.5c-26.2,0-52.3,0-78.3,0
		c-1.1-4.8,0.3-7.2,4.3-7.5c-2.6-3.2-5.2-6.3-7.7-9.5c0.2-0.2,0.4-0.4,0.6-0.6c1.9,1.2,3.8,2.3,5.6,3.5c0.2-0.2,0.4-0.4,0.6-0.5
		c-2.8-3.2-5.7-6.4-8.5-9.6c0.1-0.2,0.2-0.5,0.4-0.7c1.9,0.9,3.7,1.9,5.6,2.8c0.2-0.2,0.4-0.3,0.6-0.5c-1.7-2.1-3.3-4.2-5.1-6.5
		c1.9-1.1,3.7-2.1,5.1-2.9c-1.2-3-2.4-5.8-3.6-8.7c2.2-0.7,3.5-1.1,5.2-1.6c-2.6-5-5.1-9.9-7.8-15.3c1.5,0.9,2.8,1.6,4.3,2.5
		c-1.1-2.6-2-4.9-3.1-7.6c6.4-1.5,0.1-5.6,1.7-8.4c0.3-0.5-1.4-2.4-0.5-4.8c0.8-2.3-1.1-5.5-1.8-8.6c1.2,0.5,2.5,1,4.4,1.8
		c-0.8-4.2-5.8-6.7-3.3-11.1c0.2-0.4,1.5-0.1,2.5-0.2c-0.6-1-1.2-1.9-1.9-3.1c1.2,0,2,0,2.3,0c-0.5-3.1-0.9-6-1.5-9.7
		c1.9,1.2,3.2,2.1,5.5,3.5c-2.5-5.2-4.6-9.5-6.9-14.2c1.3,0.2,2.3,0.4,3.5,0.6c-1.3-3.3-2.6-6.5-3.9-9.7c6.6,5,7-0.9,8.5-4.4
		c2.3,1.3,4.3,2.4,6.3,3.6c0.2-0.3,0.5-0.5,0.7-0.8c-0.5-1.1-0.9-2.2-2.1-4.7c5.1,3.9,9,6.9,13,10c0.3-0.2,0.5-0.5,0.8-0.7
		c-1.7-2.1-3.4-4.3-5.1-6.4c0.3-0.3,0.5-0.6,0.8-0.9C60.4,6,67.7,10,75,14.1c-0.7-0.9-1.5-2-1.6-2c0.5-2.4,0.9-3.9,1.2-5.5
		c12.3,0,24.7,0,37.4,0C112.1,13.5,112.1,19.7,112.1,26.9z"/>
	<path class="st0" d="M272.2,133.1c-9.3,0-18.4,0-28.9,0c1.2-3.5,2.2-6.3,3.5-10.2c-1.3-1.6-3.4-4.3-5.5-6.9
		c0.2-0.2,0.4-0.5,0.6-0.7c1.6,1,3.2,1.9,4.7,2.9c0.2-0.2,0.4-0.4,0.6-0.6c-2.5-3-5-6-7.6-8.9c0.1-0.2,0.3-0.4,0.4-0.6
		c1.8,0.9,3.6,1.9,5.4,2.8c0.2-0.2,0.5-0.3,0.7-0.5c-1.9-2.4-3.7-4.8-5.5-7.1c2.1-0.8,4-1.6,6-2.4c-4.5-7.2-4.5-8.2,1-10.7
		c-2.5-4.8-4.9-9.6-7.7-15.1c1.6,0.9,2.8,1.5,4.4,2.5c-1.1-2.6-2.1-4.9-3-7.1c3.4-2.4,3.2-7-0.4-11.6c0.5,0,1-0.1,1.5-0.1
		c-0.5-3.4-1-6.9-1.6-10.4c0.9,0.5,2.1,1,3.5,1.7c-2.2-11-2.2-11,0.4-10.6c-0.8-1.2-1.5-2.3-2.5-3.7c1.2,0,1.9,0,2.2,0
		c-0.5-3-0.9-5.9-1.5-9.4c1.6,0.8,2.8,1.5,5.2,2.8c-2.4-5.1-4.4-9.4-6.7-14.2c1.9,0.8,3.1,1.3,4.5,1.9c-1.7-3.6-3.3-6.9-5.3-11.2
		c7.2,3.2,7.9,2.8,8.4-2.6c7.7,0.5,15.3,1,23.4,1.5C272.2,47.1,272.2,89.8,272.2,133.1z"/>
	<path class="st0" d="M5.2,145.6c8,0,15.2,0,22.8,0c0,2.2,0,4,0,6.6c-4.7,0-9.4,0-14.4,0c0,2.5,0,4.4,0,6.9c4.6,0,9.1,0,13.6,0
		c0,2.5,0,4.4,0,6.9c-4.6,0-9,0-13.6,0c0,2.3,0,4.1,0,6.5c5.2,0,10.3,0,15.6,0c0,2.8,0,4.9,0,7.4c-7.8,0-15.5,0-24,0
		c0-5.5,0-11.1,0-16.7C5.2,157.4,5.2,151.8,5.2,145.6z"/>
	<path class="st0" d="M80.8,149.9c-1.8,1.6-3.6,3.2-5.4,4.8c-6.8-3.7-11.4-3.4-14.8,0.9c-3,3.9-3,10.2,0.1,13.9
		c3.4,4.1,8.1,4.3,15.1,0.4c1.6,1.4,3.3,2.9,5,4.4c-3.1,5-10.5,7.8-16.5,6.3c-8.6-2.1-14.3-8-14.9-15.3c-0.8-9,2.8-16.1,9.5-19.1
		C66.3,142.9,75.7,144.3,80.8,149.9z"/>
	<path class="st0" d="M94.3,153.8c5.5,0,10.2,4.4,10,9.6c-0.2,4.8-4.9,9.5-9.8,9.6c-5.2,0.1-9.9-4.6-9.8-9.8
		C84.9,157.9,89,153.8,94.3,153.8z"/>
	<path class="st0" d="M32.8,169.8c-0.1-1.9-0.2-3.5-0.3-5.5c4.3,0,8.3,0,12.6,0c0,1.9,0,3.5,0,5.5C41.3,169.8,37.4,169.8,32.8,169.8
		z"/>
</g>
<g>
	<g>
		<path class="st0" d="M109,145.3h9.8l5.2,14.1c0.6,1.9,1.2,4,1.8,6h0.2c0.6-2,1.2-4.1,1.8-6l5-14.1h9.8v34.4h-8.3v-10.2
			c0-3.5,0.7-8.8,1.2-12.3h-0.2l-2.9,8.3l-4.2,11.4h-4.9l-4.2-11.4l-2.8-8.3H116c0.4,3.4,1.2,8.8,1.2,12.3v10.2H109V145.3z"/>
		<path class="st0" d="M149.5,174.9c0-3.1,2.2-5.5,5.3-5.5c3.1,0,5.3,2.4,5.3,5.5c0,3.1-2.2,5.5-5.3,5.5
			C151.7,180.4,149.5,178,149.5,174.9z"/>
		<path class="st0" d="M177.7,145.3h9.1v34.4h-9.1V145.3z"/>
		<path class="st0" d="M194.4,145.3h9.3l7.6,15.4l3.3,7.7h0.2c-0.4-3.7-1.2-8.9-1.2-13.1v-10h8.7v34.4h-9.3l-7.6-15.4l-3.3-7.7H202
			c0.4,3.9,1.2,8.9,1.2,13.1v10h-8.7V145.3z"/>
		<path class="st0" d="M230,145.3h10.2c10.5,0,17.7,4.9,17.7,17.1s-7.2,17.4-17.2,17.4H230V145.3z M239.7,172.5c5,0,8.9-2,8.9-10.1
			s-3.9-9.8-8.9-9.8h-0.5v19.8H239.7z"/>
		<path class="st0" d="M264.1,145.3h9.1v34.4h-9.1V145.3z"/>
		<path class="st0" d="M287,145.3h11l10.5,34.4h-9.6l-3.9-16.7c-0.8-3.3-1.7-7.5-2.5-10.9h-0.2c-0.7,3.5-1.6,7.6-2.4,10.9l-3.9,16.7
			h-9.3L287,145.3z M284,165.4h16.9v7H284V165.4z"/>
	</g>
</g>
<g>
	<path class="st0" d="M11.3,189.7c0,2.3-1.4,3.5-3.1,3.5c-1.8,0-3-1.4-3-3.4c0-2.1,1.3-3.5,3.1-3.5
		C10.1,186.3,11.3,187.7,11.3,189.7z M6.1,189.8c0,1.4,0.8,2.7,2.1,2.7c1.4,0,2.2-1.3,2.2-2.8c0-1.3-0.7-2.7-2.1-2.7
		C6.8,187,6.1,188.3,6.1,189.8z"/>
	<path class="st0" d="M21.6,193.2v-6.7h0.9l2.2,3.4c0.5,0.8,0.9,1.5,1.2,2.2l0,0c-0.1-0.9-0.1-1.7-0.1-2.8v-2.8h0.8v6.7h-0.9
		l-2.1-3.4c-0.5-0.8-0.9-1.5-1.3-2.2l0,0c0,0.8,0.1,1.7,0.1,2.8v2.9H21.6z"/>
	<path class="st0" d="M37.4,186.4h0.9v6h2.9v0.7h-3.7V186.4z"/>
	<path class="st0" d="M52.2,186.4v6.7h-0.9v-6.7H52.2z"/>
	<path class="st0" d="M62.9,193.2v-6.7h0.9l2.2,3.4c0.5,0.8,0.9,1.5,1.2,2.2l0,0c-0.1-0.9-0.1-1.7-0.1-2.8v-2.8h0.8v6.7H67l-2.1-3.4
		c-0.5-0.8-0.9-1.5-1.3-2.2l0,0c0,0.8,0.1,1.7,0.1,2.8v2.9H62.9z"/>
	<path class="st0" d="M82.1,190h-2.6v2.4h2.9v0.7h-3.8v-6.7h3.6v0.7h-2.8v2.1h2.6V190z"/>
	<path class="st0" d="M103.9,192.1c0.4,0.2,1,0.4,1.6,0.4c0.9,0,1.4-0.5,1.4-1.1c0-0.6-0.4-1-1.3-1.3c-1.1-0.4-1.8-1-1.8-1.9
		c0-1,0.9-1.8,2.2-1.8c0.7,0,1.2,0.2,1.5,0.3l-0.2,0.7c-0.2-0.1-0.7-0.3-1.3-0.3c-0.9,0-1.3,0.5-1.3,1c0,0.6,0.4,0.9,1.3,1.3
		c1.1,0.4,1.7,1,1.7,2c0,1-0.8,1.9-2.4,1.9c-0.6,0-1.4-0.2-1.7-0.4L103.9,192.1z"/>
	<path class="st0" d="M119.2,191l-0.7,2.1h-0.9l2.3-6.7h1l2.3,6.7h-0.9l-0.7-2.1H119.2z M121.4,190.4l-0.7-1.9
		c-0.1-0.4-0.2-0.8-0.3-1.2h0c-0.1,0.4-0.2,0.8-0.3,1.2l-0.7,1.9H121.4z"/>
	<path class="st0" d="M133.4,186.4h0.9v6h2.9v0.7h-3.7V186.4z"/>
	<path class="st0" d="M150.8,190h-2.6v2.4h2.9v0.7h-3.8v-6.7h3.6v0.7h-2.8v2.1h2.6V190z"/>
	<path class="st0" d="M161.3,192.1c0.4,0.2,1,0.4,1.6,0.4c0.9,0,1.4-0.5,1.4-1.1c0-0.6-0.4-1-1.3-1.3c-1.1-0.4-1.8-1-1.8-1.9
		c0-1,0.9-1.8,2.2-1.8c0.7,0,1.2,0.2,1.5,0.3l-0.2,0.7c-0.2-0.1-0.7-0.3-1.3-0.3c-0.9,0-1.3,0.5-1.3,1c0,0.6,0.4,0.9,1.3,1.3
		c1.1,0.4,1.7,1,1.7,2c0,1-0.8,1.9-2.4,1.9c-0.7,0-1.4-0.2-1.7-0.4L161.3,192.1z"/>
	<path class="st0" d="M190.3,190h-2.6v2.4h2.9v0.7h-3.8v-6.7h3.6v0.7h-2.8v2.1h2.6V190z"/>
	<path class="st0" d="M202.5,193.2l-2.2-6.7h0.9l1,3.3c0.3,0.9,0.5,1.7,0.7,2.5h0c0.2-0.8,0.5-1.6,0.8-2.5l1.1-3.3h0.9l-2.4,6.7
		H202.5z"/>
	<path class="st0" d="M221.6,189.7c0,2.3-1.4,3.5-3.1,3.5c-1.8,0-3-1.4-3-3.4c0-2.1,1.3-3.5,3.1-3.5
		C220.4,186.3,221.6,187.7,221.6,189.7z M216.3,189.8c0,1.4,0.8,2.7,2.1,2.7c1.4,0,2.2-1.3,2.2-2.8c0-1.3-0.7-2.7-2.1-2.7
		C217,187,216.3,188.3,216.3,189.8z"/>
	<path class="st0" d="M231.9,186.4h0.9v6h2.9v0.7h-3.7V186.4z"/>
	<path class="st0" d="M246.3,186.4v4c0,1.5,0.7,2.1,1.6,2.1c1,0,1.6-0.7,1.6-2.1v-4h0.9v3.9c0,2.1-1.1,2.9-2.5,2.9
		c-1.4,0-2.4-0.8-2.4-2.9v-4H246.3z"/>
	<path class="st0" d="M262.3,187.2h-2v-0.7h5v0.7h-2.1v6h-0.9V187.2z"/>
	<path class="st0" d="M276.1,186.4v6.7h-0.9v-6.7H276.1z"/>
	<path class="st0" d="M292.5,189.7c0,2.3-1.4,3.5-3.1,3.5c-1.8,0-3-1.4-3-3.4c0-2.1,1.3-3.5,3.1-3.5
		C291.3,186.3,292.5,187.7,292.5,189.7z M287.3,189.8c0,1.4,0.8,2.7,2.1,2.7c1.4,0,2.2-1.3,2.2-2.8c0-1.3-0.7-2.7-2.1-2.7
		C288,187,287.3,188.3,287.3,189.8z"/>
	<path class="st0" d="M302.8,193.2v-6.7h0.9l2.2,3.4c0.5,0.8,0.9,1.5,1.2,2.2l0,0c-0.1-0.9-0.1-1.7-0.1-2.8v-2.8h0.8v6.7H307
		l-2.1-3.4c-0.5-0.8-0.9-1.5-1.3-2.2l0,0c0.1,0.8,0.1,1.7,0.1,2.8v2.9H302.8z"/>
</g>
</svg>
